<svg id="Acad" xmlns="http://www.w3.org/2000/svg" viewBox="0 0 226.77 240.64"><defs><style>.cls-1{fill:#fff;}.cls-2{fill:#e75b85;}.cls-3{fill:#e41a52;}.cls-4{fill:#78102b;}</style></defs><path class="cls-1" d="M106.88,38.05c10.42,0,20.85,0,31.28,0q14.06,46.85,28.22,93.66c-8,0-15.92,0-23.87,0-1.82-6.55-3.69-13.1-5.51-19.65-.15-.27-.06-.93-.56-.78q-13.89,0-27.78,0c-1.74,6.81-3.51,13.61-5.2,20.43-7.78.05-15.57,0-23.36,0q13.41-46.81,26.78-93.65m15.58,15.46a7,7,0,0,0-.5,2.07q-4.53,19.13-9,38.27c6.41,0,12.82,0,19.23,0-3-12.65-6.13-25.27-9.14-37.91a18.49,18.49,0,0,0-.6-2.44"/><path class="cls-1" d="M79.89,188.32c2.89-2.59,6.92-3.49,10.72-3.39,3.49,0,7.23.84,9.86,3.3a11.18,11.18,0,0,1,3.3,8q-4.09,0-8.19,0A4.94,4.94,0,0,0,93,191.85c-2.24-.95-5.23-.72-6.9,1.21a7,7,0,0,0-1.39,4.5c0,3.81,0,7.63,0,11.44a8.4,8.4,0,0,0,1,4.59,5,5,0,0,0,4,2.22,5.71,5.71,0,0,0,4.53-1.37,6.2,6.2,0,0,0,1.38-3.92c2.77,0,5.53,0,8.29,0-.21,3.06-1.13,6.26-3.44,8.4-2.71,2.55-6.58,3.27-10.18,3.29a14.69,14.69,0,0,1-10.69-3.72,13.38,13.38,0,0,1-3.85-9.5c0-3.61,0-7.23,0-10.84a13.21,13.21,0,0,1,4.12-9.84"/><path class="cls-1" d="M116.22,185.82c4,0,7.92,0,11.88,0,3.54,11.85,7.13,23.68,10.68,35.52h-9.05c-.72-2.59-1.46-5.18-2.18-7.77H116.92c-.67,2.59-1.31,5.18-2,7.77H106.1c3.36-11.84,6.77-23.67,10.12-35.52m5.93,5.86c-1.24,5.08-2.4,10.19-3.61,15.28h7.28c-1.22-5.1-2.47-10.18-3.67-15.28"/><path class="cls-1" d="M143.11,185.82c3,0,5.93,0,8.89,0,3.33,0,6.76-.23,10,.84a12,12,0,0,1,7.83,7.13c1.55,3.81,1,8,1.08,12s-.81,8.19-3.64,11.12c-3,3.18-7.49,4.35-11.71,4.44H143.11q0-17.76,0-35.52m8.88,6.37c0,7.59,0,15.18,0,22.77,2.08-.05,4.27.22,6.25-.59a5.64,5.64,0,0,0,3.25-3.79c.8-2.89.39-5.94.5-8.91,0-2.74.16-6-2-8s-5.35-1.32-8-1.45"/><path class="cls-2" d="M27.65,5.34c3-1.77,5.93-3.65,9-5.34q0,84.6,0,169.19c-4.89,2.93-9.77,5.9-14.67,8.82-.71.4-1.37.88-2.05,1.33-6.7,3.84-13.22,8-19.88,11.88Q-.06,106.64,0,22c9.18-5.62,18.44-11.12,27.65-16.7"/><path class="cls-2" d="M122.46,53.51a18.49,18.49,0,0,1,.6,2.44c-.22-.32-.45-.64-.68-1l-.42.58a7,7,0,0,1,.5-2.07"/><path class="cls-3" d="M36.62,0C60.2.1,83.78,0,107.36,0h89.29a15,15,0,0,1,4.72.41,12.26,12.26,0,0,1,8.71,11.42q0,12.84,0,25.68,0,65.32,0,130.64c-.06.34.15,1.12-.48,1h-173q0-84.6,0-169.19m70.26,38.05Q93.52,84.88,80.1,131.7q11.69,0,23.36,0c1.69-6.83,3.46-13.63,5.2-20.44q13.89,0,27.78,0c.5-.15.41.51.56.78,1.82,6.55,3.69,13.1,5.51,19.65,8,0,15.91,0,23.87,0q-14.07-46.84-28.22-93.66c-10.43,0-20.86,0-31.28,0"/><path class="cls-3" d="M122.38,55c.23.31.46.63.68,1,3,12.64,6.13,25.26,9.14,37.91-6.41,0-12.82,0-19.23,0q4.43-19.14,9-38.27l.42-.58"/><path class="cls-4" d="M210.09,37.55h16.67q0,101.49,0,203-96.28,0-192.57,0c-2.06,0-4.19.2-6.15-.6a12.26,12.26,0,0,1-8.1-11.21c0-16.45,0-32.91,0-49.37.68-.45,1.34-.93,2.05-1.33,4.9-2.92,9.78-5.89,14.67-8.82h173c.63.13.42-.65.48-1q0-65.32,0-130.64M79.89,188.32a13.21,13.21,0,0,0-4.12,9.84c0,3.61,0,7.23,0,10.84a13.38,13.38,0,0,0,3.85,9.5,14.69,14.69,0,0,0,10.69,3.72c3.6,0,7.47-.74,10.18-3.29,2.31-2.14,3.23-5.34,3.44-8.4-2.76,0-5.52,0-8.29,0a6.2,6.2,0,0,1-1.38,3.92,5.71,5.71,0,0,1-4.53,1.37,5,5,0,0,1-4-2.22,8.4,8.4,0,0,1-1-4.59c0-3.81,0-7.63,0-11.44a7,7,0,0,1,1.39-4.5c1.67-1.93,4.66-2.16,6.9-1.21a4.94,4.94,0,0,1,2.57,4.41q4.1,0,8.19,0a11.18,11.18,0,0,0-3.3-8c-2.63-2.46-6.37-3.25-9.86-3.3-3.8-.1-7.83.8-10.72,3.39m36.33-2.5c-3.35,11.85-6.76,23.68-10.12,35.52h8.84c.67-2.59,1.31-5.18,2-7.77h10.63c.72,2.59,1.46,5.18,2.18,7.77h9.05c-3.55-11.84-7.14-23.67-10.68-35.52-4,0-7.92,0-11.88,0m26.89,0q0,17.76,0,35.52h12.42c4.22-.09,8.72-1.26,11.71-4.44,2.83-2.93,3.77-7.16,3.64-11.12s.47-8.19-1.08-12a12,12,0,0,0-7.83-7.13c-3.21-1.07-6.64-.81-10-.84h-8.89"/><path class="cls-4" d="M122.15,191.68c1.2,5.1,2.45,10.18,3.67,15.28h-7.28c1.21-5.09,2.37-10.2,3.61-15.28"/><path class="cls-4" d="M152,192.19c2.69.13,5.86-.55,8,1.45s2,5.29,2,8c-.11,3,.3,6-.5,8.91a5.64,5.64,0,0,1-3.25,3.79c-2,.81-4.17.54-6.25.59,0-7.59,0-15.18,0-22.77"/></svg>