<svg id="Linear" xmlns="http://www.w3.org/2000/svg" xmlns:xlink="http://www.w3.org/1999/xlink" viewBox="0 0 587.86 226.77"><defs><style>.cls-1{fill:#231f20;}.cls-2{fill:url(#linear-gradient);}.cls-3{fill:url(#linear-gradient-2);}.cls-4{fill:url(#linear-gradient-3);}.cls-5{fill:url(#linear-gradient-4);}</style><linearGradient id="linear-gradient" x1="-4.54" y1="180.89" x2="99.11" y2="190.56" gradientTransform="matrix(1, 0, 0, -1, 0, 224.5)" gradientUnits="userSpaceOnUse"><stop offset="0" stop-color="#61a4a4"/><stop offset="1" stop-color="#183d46"/></linearGradient><linearGradient id="linear-gradient-2" x1="204.81" y1="176.24" x2="126.8" y2="149.19" xlink:href="#linear-gradient"/><linearGradient id="linear-gradient-3" x1="57.41" y1="-16.99" x2="19.39" y2="148.69" xlink:href="#linear-gradient"/><linearGradient id="linear-gradient-4" x1="113.2" y1="-15.11" x2="179.93" y2="124.65" xlink:href="#linear-gradient"/></defs><g id="Ebene_1" data-name="Ebene 1"><path class="cls-1" d="M512.6,127.86H485.36l-10,23.32H465.23L499,75.59l33.7,75.59H522.62l-10-23.32Zm-3.55-8.34L499,96l-10.12,23.48Z"/><path class="cls-1" d="M310.42,75.59h9.63v75.59h-9.63Z"/><path class="cls-1" d="M399.29,151.17l-54.08-53.5v53.52h-9.6V75.6l54.09,53.49V75.6h9.59v75.57Z"/><polygon class="cls-1" points="263.05 141.96 263.05 75.58 253.42 81.14 253.42 151.17 294.8 151.17 294.86 141.96 263.05 141.96"/><path class="cls-1" d="M587.45,100.84c0-25.25-25.87-25.25-25.87-25.25H544.37v75.59H554V125.4h3.87a75.31,75.31,0,0,0,8.23-.41l11.25,26.18h10.12L574.79,122.8c12.53-5.9,12.66-19.65,12.66-22Zm-33.48,16V84.44h6.26c10.69,0,17.17,6.66,17.17,16s-6.47,16.42-17.17,16.42Z"/><polygon class="cls-1" points="457.65 142.1 424.4 142.1 424.4 116.83 457.65 116.83 457.65 107.76 424.4 107.76 424.4 84.66 457.71 84.66 457.71 75.59 414.86 75.59 414.86 151.17 453.59 151.17 457.65 142.1"/><path class="cls-1" d="M258,185.28v11.25h-1.65V185.28h-3.62l.29-1.55h8.32l.28,1.55Z"/><path class="cls-1" d="M276,183.6v12.93h-1.65V190.8h-7.27v5.73h-1.65V183.86l1.65-.26v5.63h7.27v-5.37l1.65-.26Z"/><path class="cls-1" d="M288.24,195l-.3,1.54h-7V183.73h6.79l.28,1.54h-5.43v3.91h4.5v1.54h-4.5V195Z"/><path class="cls-1" d="M301.88,196.53h-3.73v-12.8h3.56c2.29,0,3.9,1.37,3.9,3.33a3.09,3.09,0,0,1-2,2.89,3.21,3.21,0,0,1,2.3,3.07c0,2.09-1.62,3.51-4,3.51Zm-2.11-11.31v4.11h1.87a2.12,2.12,0,0,0,2.3-2.12,2.05,2.05,0,0,0-2.3-2Zm2.05,5.57h-2.05v4.26h2.05a2.15,2.15,0,1,0,0-4.26Z"/><path class="cls-1" d="M310.39,183.86l1.64-.26v12.93h-1.64V183.86Z"/><path class="cls-1" d="M329,196.53l-.77-8.23-4.59,8.45L319,188.26l-.77,8.27H316.6l1.28-13.5,5.71,10.57,5.7-10.57,1.31,13.5Z"/><path class="cls-1" d="M348.06,195l-.29,1.54h-7V183.73h6.79l.27,1.54h-5.43v3.91h4.51v1.54h-4.51V195h5.68Z"/><path class="cls-1" d="M363.31,197.09,354,187.24v9.3h-1.65V183.19l9.28,9.84v-9.17l1.64-.27Z"/><path class="cls-1" d="M378.66,189.5v6.22a9.12,9.12,0,0,1-4.28,1,6.59,6.59,0,0,1-6.7-6.62,6.67,6.67,0,0,1,6.85-6.62,7.5,7.5,0,0,1,3.6.89l-.29,1.65a6,6,0,0,0-3.31-1,5.08,5.08,0,0,0-5.14,5.07,5,5,0,0,0,5,5.07,6.59,6.59,0,0,0,2.69-.51V191h-3.55l.28-1.52h4.86Z"/><path class="cls-1" d="M383.43,183.86l1.65-.26v12.93h-1.65V183.86Z"/><path class="cls-1" d="M401,197.09l-9.27-9.85v9.3h-1.65V183.19l9.27,9.84v-9.17l1.65-.27Z"/><path class="cls-1" d="M413.25,195l-.29,1.54h-7V183.73h6.78l.28,1.54h-5.43v3.91h4.5v1.54h-4.5V195h5.68Z"/><path class="cls-1" d="M424.9,195l-.29,1.54h-7V183.73h6.78l.28,1.54h-5.43v3.91h4.5v1.54h-4.5V195h5.68Z"/><path class="cls-1" d="M434.83,196.53l-1.9-4.42-1,0-1.06,0v4.37h-1.62v-12.8H432c2.74,0,4.59,1.68,4.57,4.3a4,4,0,0,1-2.16,3.7l2.12,4.81h-1.7Zm-4-5.81h1.06a2.75,2.75,0,1,0,0-5.48h-1.06v5.48Z"/><path class="cls-1" d="M441.32,183.86l1.65-.26v12.93h-1.65V183.86Z"/><path class="cls-1" d="M458.9,197.09l-9.27-9.85v9.3H448V183.19l9.27,9.84v-9.17l1.65-.27Z"/><path class="cls-1" d="M474.25,189.5v6.22a9.12,9.12,0,0,1-4.28,1,6.59,6.59,0,0,1-6.7-6.62,6.66,6.66,0,0,1,6.84-6.62,7.47,7.47,0,0,1,3.6.89l-.29,1.65a6,6,0,0,0-3.31-1,5.09,5.09,0,0,0-5.14,5.07,5,5,0,0,0,5,5.07,6.54,6.54,0,0,0,2.68-.51V191h-3.54l.28-1.52Z"/><path class="cls-1" d="M484.21,193.63a5.35,5.35,0,0,0,3.54,1.61,2.15,2.15,0,0,0,2.34-2.12,2.27,2.27,0,0,0-1.87-2.16l-.82-.28c-2.11-.68-3.14-1.92-3.14-3.73a3.49,3.49,0,0,1,3.71-3.44,6.27,6.27,0,0,1,3.31,1l-.29,1.64a5.38,5.38,0,0,0-3-1.15,1.91,1.91,0,0,0-2.07,1.92c0,1,.57,1.67,2.1,2.18l.84.28a3.74,3.74,0,0,1-1.08,7.37,6.29,6.29,0,0,1-3.88-1.4l.33-1.72Z"/><path class="cls-1" d="M502.13,183.51a6.62,6.62,0,1,1-6.76,6.62A6.63,6.63,0,0,1,502.13,183.51Zm0,1.55a5.07,5.07,0,1,0,5,5.07A5,5,0,0,0,502.13,185.06Z"/><path class="cls-1" d="M514.89,189.59h4.16v1.53h-4.16v5.42h-1.65V183.73h6.5l.29,1.54h-5.14v4.32Z"/><path class="cls-1" d="M528.4,185.28v11.25h-1.65V185.28h-3.62l.29-1.55h8.33l.27,1.55Z"/><path class="cls-1" d="M547.41,197l-4.1-9.68L539.19,197l-4.55-13.28h1.71l3,9,3.92-9.24,3.91,9.26,3-9H552L547.39,197Z"/><path class="cls-1" d="M561.33,192.44h-4.77l-1.76,4.1H553L559,183.28l5.91,13.26h-1.77l-1.76-4.1Zm-.62-1.46L559,186.86,557.17,191Z"/><path class="cls-1" d="M574.13,196.53l-1.91-4.42-1,0-1.06,0v4.37h-1.63v-12.8h2.77c2.74,0,4.59,1.68,4.57,4.3a4,4,0,0,1-2.16,3.7l2.11,4.81h-1.69Zm-4-5.81h1.06a2.75,2.75,0,1,0,0-5.48h-1.06v5.48Z"/><path class="cls-1" d="M587.85,195l-.29,1.54h-7V183.73h6.79l.28,1.54h-5.43v3.91h4.5v1.54h-4.5V195h5.68Z"/></g><g id="Ebene_1-2" data-name="Ebene 1"><polygon class="cls-2" points="68.41 73.89 130.91 37.79 65.47 0 2.94 36.1 68.41 73.89"/><polygon class="cls-3" points="193.45 73.89 130.91 37.79 130.91 110 193.45 73.89"/><polygon class="cls-4" points="0 41.2 0 188.98 65.47 226.77 65.47 78.98 0 41.2"/><polygon class="cls-5" points="130.91 116.77 130.91 188.98 196.38 151.16 196.38 78.98 130.91 116.77"/></g></svg>