<svg id="Navisworks" xmlns="http://www.w3.org/2000/svg" viewBox="0 0 226.77 240.64"><defs><style>.cls-1{fill:#21428d;}.cls-2{fill:#456bb3;}.cls-3{fill:#6e98d0;}.cls-4{fill:#fff;}</style></defs><g id="eaff46b7-9a5c-43a7-ae2d-f852f58ecf8f"><path id="edb25bad-3e75-4fc2-b787-023aedd06006" class="cls-1" d="M36.66,0,208.21,37.6h18.56v203H32.19A12.23,12.23,0,0,1,20,228.42h0V177.26L36.3.57Z"/><path id="ab308e8a-47af-4031-ac4e-9d8054c3a688" class="cls-2" d="M36.66,0H197.87a12.22,12.22,0,0,1,12.22,12.22v157H36.66V0Z"/><polygon id="f0e0bf2b-b287-4c71-ac75-82a862e8ac36" class="cls-3" points="0 191.29 36.66 169.2 36.66 0 0 22.09 0 191.29"/></g><g id="ae93ea22-eb08-467b-9b5a-f2696111aa84"><path class="cls-4" d="M106.46,185.86V221.4H98v-23l-5.94,22.9v.05H83.72l-6.3-23.86V221.4H69.81V185.86H81l7.15,28.53L95.65,186l-.05-.11Z"/><path class="cls-4" d="M132.49,213.63H121.83l-2,7.77H111l10.15-35.54H133l10.71,35.54h-9Zm-5.43-21.93L123.45,207h7.31Z"/><path class="cls-4" d="M177,185.86V221.4h-9.6l-11.57-24.52V221.4h-7.56V185.86h10.4l10.76,22v-22Z"/></g><g id="a5eabc92-6c19-47be-bc65-aa052141a2cb"><path class="cls-4" d="M161.35,37.86v93.77H136l-30.54-64.7v64.7h-20V37.86H113L141.39,96V37.86Z"/></g></svg>