<svg id="Nova" xmlns="http://www.w3.org/2000/svg" viewBox="0 0 587.86 226.77"><defs><style>.cls-1{fill:#373545;}.cls-2{fill:#005f9e;}</style></defs><polygon class="cls-1" points="258.26 166.51 258.26 58.66 276.77 58.66 327.79 135.61 328.07 135.61 328.07 58.66 344.98 58.66 344.98 166.51 328.37 166.51 275.46 87.95 275.17 87.95 275.17 166.51 258.26 166.51"/><path class="cls-1" d="M359.72,127.89c0-28.57,18.8-40.22,37.75-40.22,18.8,0,37.74,11.65,37.74,40.22,0,28.27-18.94,40.22-37.74,40.22s-37.75-12-37.75-40.22m57.42,0c0-14.43-6.12-24.92-19.67-24.92-13,0-19.68,9.32-19.68,24.92,0,14.72,6,25.21,19.68,25.21,13,0,19.67-9.33,19.67-25.21"/><polygon class="cls-1" points="464.82 166.66 436.83 89.12 455.63 89.12 474.58 146.25 474.88 146.25 493.68 89.12 511.02 89.12 483.03 166.66 464.82 166.66"/><path class="cls-1" d="M514,147.85c0-16.76,14.28-28,50.43-32.06v-2.33c0-7.72-4.08-11.08-12.68-11.08-10.79,0-19.53,5.25-26.09,10.5l-8.75-11.22a55.38,55.38,0,0,1,37.31-14c20.7,0,27.84,9.91,27.84,28v31.91c0,9.33.58,15,2.19,18.95H566.15a28.08,28.08,0,0,1-1.74-9.91c-7.87,8-17,11.07-28.57,11.07-12.53,0-21.86-7-21.86-19.82m50.43-2.91v-17c-21.42,2.91-32.79,8.16-32.79,16.61,0,6.12,4.22,9.33,10.78,9.33a30.93,30.93,0,0,0,22-8.89"/><polygon class="cls-2" points="96.21 0 142.66 80.46 95.18 107.87 95.18 193.68 11.57 48.87 96.21 0"/><polygon class="cls-2" points="152.98 98.34 115.83 119.8 115.83 226.77 199.31 178.57 152.98 98.34"/><polygon class="cls-2" points="2.27 173.43 45.31 148.58 2.27 74.06 2.27 173.43"/><polygon class="cls-2" points="208.73 153.61 208.73 66.15 170.86 88.02 208.73 153.61"/></svg>