<svg id="revit" xmlns="http://www.w3.org/2000/svg" viewBox="0 0 226.77 240.64"><defs><style>.cls-1{fill:#21428d;}.cls-2{fill:#456bb3;}.cls-3{fill:#6e98d0;}.cls-4{fill:#fff;}</style></defs><g id="ecc29cf8-9750-4359-9990-af3620910e81"><path id="ffb0b1c7-a909-458b-9ade-0002ce1e0ca2" class="cls-1" d="M36.66,0,208.21,37.6h18.56v203H32.19A12.23,12.23,0,0,1,20,228.42h0V177.26L36.3.57Z"/><path id="a75f263b-d4d5-4a0b-88b3-15d32fe5af36" class="cls-2" d="M36.66,0H197.87a12.22,12.22,0,0,1,12.22,12.22v157H36.66V0Z"/><polygon id="f1a31b05-074a-40ac-badd-9a8b6bdcd7fb" class="cls-3" points="0 191.29 36.66 169.2 36.66 0 0 22.09 0 191.29"/></g><g id="bd3f7e2d-cc6b-42a6-ad29-baa727df179a"><path class="cls-4" d="M107.5,216.07v5.33a7.65,7.65,0,0,1-3.56.76c-3.09,0-5.53-.92-7.46-4.93l-4.26-8.62H88.31V221.4H79.43V185.86H92.88c7.71,0,12.89,3.71,12.89,9.65v3.2c0,3.5-2.18,6.24-5.63,8l4,7.46a3,3,0,0,0,3,1.93Zm-19.19-13.3h3.86c2.84,0,4.72-1.47,4.72-4.22V196c0-2.69-1.93-4.06-4.72-4.06H88.31Z"/><path class="cls-4" d="M108.76,185.86H118l7.36,28.58,6.7-28.58h9l-9.9,35.54H119.27Z"/><path class="cls-4" d="M171.28,192.26H162V221.4h-8.88V192.26h-9.39v-6.4h27.56Z"/></g><g id="bcc10ef3-a3c8-4c2e-a06a-6e6e01af350f"><path class="cls-4" d="M163.76,117.56v14.07a19.81,19.81,0,0,1-9.38,2c-8.17,0-14.6-2.41-19.69-13L123.44,97.87H113.13v33.76H89.69V37.86h35.49c20.36,0,34,9.78,34,25.45v8.44c0,9.24-5.76,16.48-14.87,21l10.45,19.69c1.74,3.49,4,5.09,7.9,5.09ZM113.13,82.47h10.18c7.5,0,12.46-3.89,12.46-11.12v-6.7c0-7.1-5.1-10.71-12.46-10.71H113.13Z"/></g></svg>