<?xml version="1.0" encoding="utf-8"?>
<!-- Generator: Adobe Illustrator 26.3.1, SVG Export Plug-In . SVG Version: 6.00 Build 0)  -->
<svg version="1.1" id="Layer_1" xmlns="http://www.w3.org/2000/svg" xmlns:xlink="http://www.w3.org/1999/xlink" x="0px" y="0px"
	 viewBox="0 0 595.28 841.89" style="enable-background:new 0 0 595.28 841.89;" xml:space="preserve">
<style type="text/css">
	.st0{fill:#BFBD80;}
	.st1{fill:#5D7D38;}
</style>
<g>
	<path class="st0" d="M306.76,404.79h-60.15v178.29c0,7.15,0.98,11.73,2.96,13.69c1.97,1.97,6.53,2.95,13.69,2.95h43.49v33.82
		h-86.98c-28.29,0-42.42-14.12-42.42-42.42V404.79h-41.9v-31.68h41.9V208.35h69.25v164.77h60.15V404.79z"/>
	<path class="st1" d="M417.4,373.12H328v31.68h45.91c6.79,0,11.28,1.07,13.41,3.23c2.16,2.15,3.25,6.63,3.25,13.42v163.76
		c0,7.18-1.09,11.76-3.25,13.71c-2.13,1.97-6.62,2.95-13.41,2.95H328v31.68h89.4c28.28,0,42.42-14.12,42.42-42.42V415.54
		C459.82,387.26,445.68,373.12,417.4,373.12z"/>
</g>
</svg>
